<?xml version="1.0" standalone="no"?>
<!DOCTYPE svg PUBLIC "-//W3C//DTD SVG 20010904//EN"
 "http://www.w3.org/TR/2001/REC-SVG-20010904/DTD/svg10.dtd">
<svg version="1.0" xmlns="http://www.w3.org/2000/svg"
 width="1024.000000pt" height="1024.000000pt" viewBox="0 0 1024.000000 1024.000000"
 preserveAspectRatio="xMidYMid meet">

<g transform="translate(0.000000,1024.000000) scale(0.100000,-0.100000)"
fill="#000000" stroke="none">
<path d="M3544 9387 c-84 -40 -133 -117 -134 -207 -1 -31 -6 -38 -53 -67 -73
-45 -212 -170 -277 -250 l-55 -68 -187 0 -188 1 -38 37 c-50 48 -98 67 -174
67 -79 0 -133 -24 -179 -79 -41 -47 -59 -97 -60 -167 0 -49 0 -49 -81 -114
-139 -113 -260 -268 -366 -467 l-57 -108 -120 -42 c-261 -93 -522 -249 -653
-392 -92 -99 -167 -252 -192 -392 -7 -35 -12 -144 -12 -241 l1 -177 -70 -83
c-132 -156 -189 -291 -197 -465 -9 -215 58 -385 219 -558 l56 -61 6 -79 c9
-113 48 -241 116 -379 l58 -119 -26 -51 c-22 -43 -26 -64 -26 -136 0 -73 4
-93 28 -142 31 -63 76 -106 147 -140 64 -31 177 -31 243 -1 l47 22 65 -45
c125 -87 385 -203 543 -241 68 -16 68 -16 85 -62 24 -68 68 -122 132 -160 51
-31 67 -35 145 -39 78 -4 94 -2 144 21 32 15 77 47 104 76 l48 50 134 -19
c183 -26 354 -40 481 -40 l106 0 12 -61 c30 -151 113 -337 208 -464 158 -211
349 -345 586 -411 127 -36 345 -44 502 -19 183 28 372 82 526 149 13 6 40 -23
120 -125 57 -72 181 -224 274 -338 248 -301 285 -346 359 -449 199 -276 344
-564 436 -862 18 -58 36 -109 40 -113 10 -11 126 10 162 29 19 10 28 22 28 38
0 37 -94 300 -161 453 -128 289 -235 456 -485 763 -283 347 -389 478 -476 588
l-87 111 197 102 c275 143 286 149 294 149 4 0 27 -15 50 -33 107 -81 246
-114 358 -83 49 13 56 13 63 0 21 -37 168 -207 246 -284 258 -255 547 -421
883 -506 137 -34 387 -44 523 -20 257 44 480 167 685 375 223 227 354 482 449
877 68 278 76 301 129 348 161 143 242 249 302 392 64 155 96 329 105 576 l5
131 38 32 c116 100 116 290 -1 390 -23 20 -58 40 -79 47 -35 10 -39 16 -59 77
-32 98 -119 274 -186 376 -33 50 -100 135 -149 189 l-89 100 -1 170 c-1 133
-6 194 -23 273 -85 407 -303 727 -647 949 -87 56 -248 139 -327 169 -63 24
-125 92 -204 228 -197 333 -405 511 -718 617 -179 61 -445 87 -609 60 -60 -10
-60 -9 -135 35 -253 148 -518 235 -717 235 -184 0 -455 -91 -654 -220 -62 -41
-65 -42 -90 -26 -66 42 -233 128 -305 157 -111 44 -283 86 -411 100 -117 12
-295 7 -382 -12 -51 -10 -55 -10 -80 14 -43 39 -91 59 -157 64 -49 3 -69 0
-111 -20z m170 -158 c35 -41 34 -83 -3 -120 -20 -20 -39 -29 -61 -29 -44 0
-90 47 -90 93 0 82 101 119 154 56z m612 -104 c159 -28 340 -92 472 -167 l53
-30 -93 -86 c-51 -48 -154 -146 -228 -218 -134 -131 -136 -132 -220 -159 -198
-65 -394 -27 -843 164 -92 39 -178 73 -192 77 -14 3 -25 11 -25 16 0 17 121
137 195 194 l72 54 34 -17 c48 -24 143 -22 194 4 51 27 100 78 119 125 16 38
15 38 106 51 67 11 276 6 356 -8z m1620 -31 c112 -32 283 -109 413 -186 120
-71 96 -68 356 -53 123 7 154 5 251 -14 231 -44 396 -127 556 -279 55 -52 138
-152 138 -165 0 -4 -22 2 -48 12 -72 28 -283 78 -405 96 -167 24 -487 36 -759
29 -237 -7 -248 -6 -254 12 -3 10 -21 51 -40 91 -41 86 -114 157 -211 205 -59
29 -78 33 -166 36 -121 5 -202 -14 -285 -67 -171 -111 -249 -315 -197 -516 64
-244 317 -393 560 -330 161 42 294 170 335 323 l11 44 422 -4 c458 -5 542 -13
762 -68 207 -52 349 -121 425 -206 29 -32 39 -55 53 -124 30 -142 86 -339 117
-414 65 -156 183 -317 295 -404 167 -129 321 -182 529 -182 l104 0 8 -66 c8
-80 -1 -220 -20 -289 -35 -133 -156 -302 -364 -508 l-139 -139 -49 25 c-227
114 -518 13 -624 -216 -110 -236 -17 -505 215 -618 68 -33 73 -34 195 -34 123
0 126 1 200 36 99 48 168 111 212 196 75 143 76 289 6 427 l-20 40 96 90 c148
141 272 281 344 391 36 55 67 102 68 103 5 8 66 -66 123 -148 69 -101 111
-181 161 -309 l37 -95 -33 -43 c-42 -55 -58 -112 -51 -184 8 -87 60 -169 131
-206 l29 -15 -6 -152 c-10 -239 -64 -449 -150 -578 -50 -75 -143 -159 -212
-193 l-56 -28 -177 12 c-97 7 -309 32 -471 55 l-295 42 -11 50 c-19 84 -55
146 -129 220 -57 56 -85 76 -140 98 -183 72 -385 30 -514 -108 -117 -126 -158
-281 -117 -441 46 -176 175 -294 364 -332 200 -41 413 65 504 250 15 31 33 57
39 57 6 0 135 -18 287 -40 236 -34 545 -66 577 -59 30 5 29 -9 -8 -169 -94
-403 -215 -648 -423 -857 -241 -242 -518 -347 -832 -316 -432 44 -825 285
-1152 709 l-33 43 31 62 c105 209 26 459 -178 560 -62 30 -71 32 -181 32 -106
0 -120 -2 -177 -29 -39 -18 -81 -48 -112 -80 -84 -89 -114 -169 -113 -295 l1
-86 -265 -139 c-276 -144 -384 -194 -519 -241 -69 -24 -90 -27 -159 -22 -146
10 -251 84 -418 294 -106 134 -178 200 -267 246 -133 69 -256 97 -427 97 -129
0 -137 5 -178 90 -31 66 -30 228 2 325 45 136 144 266 257 337 65 41 730 335
1361 603 l242 102 43 -50 c91 -106 210 -153 370 -145 88 4 107 9 171 41 163
80 259 233 260 412 0 138 -47 250 -144 342 -89 83 -191 123 -318 123 -127 0
-235 -44 -321 -130 -90 -89 -127 -177 -138 -328 l-6 -83 -200 -85 c-449 -190
-577 -244 -940 -401 -499 -216 -498 -216 -621 -338 -90 -89 -107 -111 -153
-205 -49 -101 -83 -211 -96 -322 l-6 -48 -60 0 c-87 0 -280 19 -453 44 l-149
21 -15 45 c-60 182 -263 267 -439 184 -47 -23 -107 -77 -130 -118 -19 -34
-349 94 -506 196 l-69 45 -2 99 c-1 110 -11 136 -73 205 -57 63 -122 92 -222
97 l-84 5 -44 93 c-49 104 -93 262 -93 334 0 37 12 71 55 158 103 208 138 363
116 516 -14 102 -33 159 -113 340 l-62 139 34 29 c43 36 212 119 300 148 154
49 398 82 502 66 l45 -7 11 -60 c16 -87 54 -161 114 -225 91 -96 201 -144 331
-144 134 1 232 39 329 129 99 91 158 244 144 373 -28 249 -215 417 -462 418
-170 0 -337 -97 -409 -239 l-26 -53 -97 7 c-123 9 -290 -8 -443 -46 -117 -28
-300 -95 -342 -124 -44 -31 -50 -22 -43 63 13 139 53 251 124 344 102 136 356
293 612 381 85 29 105 30 952 43 426 7 460 6 505 -11 62 -23 163 -88 286 -184
81 -63 97 -79 91 -96 -3 -11 -9 -56 -11 -100 -6 -100 18 -172 82 -242 64 -72
139 -106 245 -111 109 -5 177 19 253 88 220 201 98 565 -199 596 -64 7 -169
-14 -212 -42 -21 -14 -26 -12 -80 30 -98 76 -285 207 -322 226 -19 10 -68 28
-109 40 l-73 23 -556 -10 c-307 -5 -558 -9 -560 -7 -6 4 50 108 89 166 90 132
274 307 308 292 120 -50 239 -10 302 101 l31 55 134 0 c87 0 161 -6 207 -16
40 -9 223 -76 407 -150 430 -172 485 -187 695 -188 142 -1 169 2 237 23 l77
24 38 -20 c82 -43 106 -105 283 -758 62 -225 113 -413 113 -416 1 -4 -19 -25
-45 -48 -27 -24 -59 -66 -75 -99 -24 -50 -28 -69 -28 -147 0 -74 4 -97 23
-133 47 -89 120 -149 201 -167 32 -7 33 -8 15 -25 -11 -10 -86 -68 -167 -129
l-148 -111 -52 14 c-29 7 -149 30 -267 51 -118 20 -222 40 -230 44 -9 5 -18
30 -22 65 -21 165 -160 316 -333 361 -338 88 -645 -205 -574 -547 48 -233 290
-400 520 -359 136 24 277 118 333 223 16 29 30 54 31 55 3 5 338 -56 454 -82
125 -28 162 -44 185 -77 44 -62 -2 -116 -167 -197 -143 -71 -265 -112 -431
-146 -244 -49 -411 -51 -631 -5 -118 24 -985 183 -1098 201 -43 6 -80 15 -82
20 -3 4 -10 31 -15 61 -46 241 -283 408 -524 369 -374 -61 -526 -516 -263
-783 220 -223 607 -166 746 110 18 35 26 41 44 37 12 -2 110 -21 217 -40 503
-91 856 -157 975 -180 235 -47 433 -44 685 11 339 74 621 214 708 351 68 108
64 228 -10 310 -11 12 -17 26 -14 32 11 17 608 476 1043 802 l222 166 72 -36
c71 -35 76 -36 188 -36 110 0 120 2 183 32 213 101 302 360 198 578 -74 156
-268 252 -450 224 -266 -40 -427 -317 -330 -570 11 -29 19 -54 17 -55 -1 -1
-137 -103 -302 -227 l-300 -226 -12 63 c-27 147 -128 255 -255 272 -45 6 -47
8 -56 48 -5 22 -53 208 -106 411 -167 637 -195 716 -283 801 l-45 44 148 147
c174 171 294 274 419 356 291 192 516 242 761 171z m-3443 -364 c68 -54 25
-170 -62 -170 -33 0 -81 50 -87 91 -9 51 33 99 86 99 22 0 48 -8 63 -20z
m3363 -65 c61 -30 108 -80 137 -144 28 -64 21 -181 -16 -244 -73 -124 -225
-175 -352 -118 -60 27 -98 61 -133 121 -24 40 -27 55 -27 136 0 83 2 94 30
139 82 131 227 175 361 110z m2312 -770 c59 -30 142 -77 185 -105 100 -66 244
-204 320 -304 56 -77 159 -272 173 -328 l6 -28 -74 0 c-190 0 -382 101 -509
268 -60 79 -116 194 -154 312 -30 96 -65 240 -58 240 3 0 53 -25 111 -55z
m-1741 -208 c143 -53 213 -212 152 -347 -96 -212 -408 -196 -474 24 -19 63
-19 90 1 155 39 133 194 214 321 168z m-2500 -164 c56 -44 78 -88 78 -153 0
-138 -146 -230 -270 -170 -117 56 -147 200 -62 297 44 50 80 64 154 60 52 -2
69 -8 100 -34z m-1561 -320 c68 -23 145 -102 169 -172 50 -151 -34 -314 -184
-358 -180 -52 -355 79 -355 266 0 84 28 145 94 204 80 72 179 93 276 60z
m2744 -256 c81 -43 112 -145 70 -227 -49 -97 -178 -118 -260 -44 -71 64 -78
161 -17 231 58 66 132 80 207 40z m-1385 -377 c55 -23 101 -64 132 -118 21
-36 28 -61 31 -126 4 -74 1 -86 -25 -136 -72 -137 -233 -189 -373 -119 -99 50
-148 132 -149 249 -2 198 200 330 384 250z m-2854 -293 c29 -85 31 -100 27
-192 -5 -103 -31 -191 -81 -274 l-21 -34 -32 36 c-71 83 -124 220 -124 322 0
97 40 208 110 304 l33 45 29 -57 c16 -32 42 -99 59 -150z m1072 -210 c91 -53
141 -142 140 -247 0 -76 -19 -124 -70 -181 -56 -61 -124 -93 -203 -93 -169 1
-291 132 -278 299 9 109 65 187 170 236 63 29 178 22 241 -14z m3936 -71 c116
-59 174 -200 136 -332 -13 -47 -27 -69 -68 -109 -83 -81 -186 -104 -287 -66
-117 45 -183 138 -183 259 1 37 6 81 12 97 61 156 241 226 390 151z m2356
-206 c97 -42 155 -123 163 -230 9 -124 -42 -215 -150 -269 -87 -44 -162 -43
-250 2 -136 70 -186 227 -117 365 42 85 110 137 198 152 56 9 103 3 156 -20z
m1328 -100 c55 -43 56 -116 1 -159 -32 -25 -64 -27 -104 -6 -37 19 -50 43 -50
90 0 77 92 123 153 75z m-8332 -775 c124 -80 65 -277 -84 -277 -113 0 -183
102 -143 206 20 52 42 73 93 92 46 16 86 10 134 -21z m6487 -201 c176 -88 208
-331 60 -458 -145 -125 -384 -64 -443 113 -47 143 27 308 160 355 68 24 163
20 223 -10z m-5362 -283 c80 -36 116 -136 79 -215 -51 -106 -205 -115 -273
-15 -20 29 -23 44 -20 96 3 55 8 67 38 98 53 55 109 66 176 36z m3891 -323
c52 -24 106 -85 121 -137 50 -166 -58 -321 -224 -321 -138 1 -243 105 -244
241 0 183 180 296 347 217z m-2372 -263 c150 -38 295 -146 393 -292 57 -85
146 -179 199 -209 23 -14 43 -30 43 -35 0 -14 -179 -10 -273 6 -176 31 -322
108 -453 239 -70 70 -151 181 -193 264 l-21 42 123 0 c76 0 145 -6 182 -15z"/>
<path d="M7481 7430 c-182 -39 -330 -196 -362 -384 -22 -130 21 -277 111 -379
l41 -46 -189 -363 c-104 -200 -215 -415 -247 -478 -80 -160 -241 -462 -288
-540 -63 -103 -124 -177 -195 -235 -115 -95 -195 -130 -792 -344 l-305 -110
-15 22 c-33 48 -107 120 -148 144 -230 135 -541 52 -656 -176 -123 -241 -35
-527 196 -636 142 -67 279 -67 413 -1 89 44 134 82 178 149 51 76 75 145 84
234 l8 78 140 48 c706 244 819 289 953 377 100 66 202 170 276 279 52 78 290
530 580 1102 l180 354 125 0 c121 0 129 1 194 32 89 42 140 83 193 155 64 88
87 168 82 286 -6 119 -30 185 -95 267 -88 108 -198 163 -338 170 -44 2 -100 0
-124 -5z m214 -204 c138 -64 198 -233 131 -370 -51 -105 -155 -163 -273 -154
-225 17 -332 282 -182 451 83 95 214 125 324 73z m-2727 -2655 c95 -48 152
-144 151 -251 0 -36 -6 -79 -12 -97 -66 -179 -300 -241 -445 -118 -90 78 -120
220 -68 330 29 63 103 130 165 150 59 19 157 12 209 -14z"/>
<path d="M5947 3403 c-96 -4 -98 -4 -92 -26 10 -32 78 -145 171 -285 85 -128
200 -345 324 -615 l73 -158 -26 -27 c-87 -91 -72 -267 29 -351 47 -39 130 -65
178 -56 l34 7 31 -95 c29 -92 63 -245 75 -339 l5 -47 -54 -15 c-71 -21 -154
-96 -186 -168 -33 -77 -32 -183 2 -258 37 -79 71 -115 147 -152 158 -78 342
-18 418 137 37 77 42 155 15 245 -19 61 -31 82 -76 126 -29 29 -64 56 -78 59
-28 7 -27 6 -43 150 -9 86 -57 269 -92 353 l-30 73 26 47 c35 62 38 175 5 237
-43 81 -123 135 -201 135 l-38 0 -64 151 c-36 84 -66 155 -68 159 -2 4 55 -31
125 -77 70 -47 194 -117 275 -156 l147 -72 -6 -65 c-3 -36 0 -83 6 -107 17
-63 70 -134 128 -172 l51 -34 7 -86 c23 -334 93 -698 198 -1041 l24 -75 53 -3
c65 -4 140 21 140 47 0 9 -23 98 -50 197 -84 300 -144 623 -156 844 l-6 115
47 25 c27 13 65 46 86 73 157 199 20 487 -232 487 -70 0 -141 -19 -171 -47
-24 -22 -60 -11 -224 71 -215 106 -400 241 -561 410 -108 112 -161 187 -215
302 -21 46 -42 83 -46 82 -4 -1 -51 -4 -105 -5z m1393 -978 c87 -45 103 -170
32 -239 -60 -56 -147 -53 -208 8 -89 89 -23 246 103 246 24 0 57 -7 73 -15z
m-687 -225 c59 -65 17 -170 -68 -170 -97 0 -131 140 -47 193 36 23 80 14 115
-23z m222 -959 c70 -40 100 -130 67 -204 -70 -157 -308 -108 -305 63 2 130
127 204 238 141z"/>
</g>
</svg>
